<mxfile host="app.diagrams.net" agent="Mozilla/5.0 (Macintosh; Intel Mac OS X 10_15_7) AppleWebKit/605.1.15 (KHTML, like Gecko) Version/18.4 Safari/605.1.15" version="26.1.0">
  <diagram name="Page-1" id="vVAyhjayUmsBxtB53oNt">
    <mxGraphModel dx="2158" dy="1115" grid="1" gridSize="10" guides="1" tooltips="1" connect="1" arrows="1" fold="1" page="1" pageScale="1" pageWidth="850" pageHeight="1100" math="0" shadow="0">
      <root>
        <mxCell id="0" />
        <mxCell id="1" parent="0" />
        <mxCell id="BADFZe-vywgrfgyrvBf6-27" value="&lt;p style=&quot;margin:0px;margin-top:4px;text-align:center;&quot;&gt;&lt;b&gt;User&lt;/b&gt;&lt;/p&gt;&lt;hr size=&quot;1&quot; style=&quot;border-style:solid;&quot;&gt;&lt;p style=&quot;margin:0px;margin-left:4px;&quot;&gt;+ userId: String&lt;br&gt;&lt;/p&gt;&lt;p style=&quot;margin:0px;margin-left:4px;&quot;&gt;+ username: String&lt;br style=&quot;padding: 0px; margin: 0px;&quot;&gt;+ email: String&lt;br style=&quot;padding: 0px; margin: 0px;&quot;&gt;+ password: String&lt;br style=&quot;padding: 0px; margin: 0px;&quot;&gt;+ role: String&amp;nbsp;&lt;em data-end=&quot;370&quot; data-start=&quot;343&quot;&gt;(admin, customer, vendor)&lt;/em&gt;&lt;br&gt;&lt;/p&gt;&lt;hr size=&quot;1&quot; style=&quot;border-style:solid;&quot;&gt;&lt;p style=&quot;margin:0px;margin-left:4px;&quot;&gt;+ register(): void&lt;br style=&quot;padding: 0px; margin: 0px;&quot;&gt;+ login(): void&lt;br style=&quot;padding: 0px; margin: 0px;&quot;&gt;+ updateProfile(): void&lt;br&gt;&lt;/p&gt;" style="verticalAlign=top;align=left;overflow=fill;html=1;whiteSpace=wrap;" vertex="1" parent="1">
          <mxGeometry x="-280" y="240" width="160" height="170" as="geometry" />
        </mxCell>
        <mxCell id="BADFZe-vywgrfgyrvBf6-29" value="&lt;p style=&quot;margin:0px;margin-top:4px;text-align:center;&quot;&gt;&lt;b&gt;Product&lt;/b&gt;&lt;/p&gt;&lt;hr size=&quot;1&quot; style=&quot;border-style:solid;&quot;&gt;&lt;p style=&quot;margin:0px;margin-left:4px;&quot;&gt;+ productId: String&lt;br&gt;&lt;/p&gt;&lt;p style=&quot;margin:0px;margin-left:4px;&quot;&gt;+ name: String&lt;br style=&quot;padding: 0px; margin: 0px;&quot;&gt;+ description: String&lt;br style=&quot;padding: 0px; margin: 0px;&quot;&gt;+ price: Number&lt;br style=&quot;padding: 0px; margin: 0px;&quot;&gt;+ category: String&lt;br style=&quot;padding: 0px; margin: 0px;&quot;&gt;+ tags: Array&amp;lt;String&amp;gt;&lt;br&gt;&lt;/p&gt;&lt;hr size=&quot;1&quot; style=&quot;border-style:solid;&quot;&gt;&lt;p style=&quot;margin:0px;margin-left:4px;&quot;&gt;+ createProduct(): void&lt;br style=&quot;padding: 0px; margin: 0px;&quot;&gt;+ updateProduct(): void&lt;br style=&quot;padding: 0px; margin: 0px;&quot;&gt;+ deleteProduct(): void&lt;br&gt;&lt;/p&gt;" style="verticalAlign=top;align=left;overflow=fill;html=1;whiteSpace=wrap;" vertex="1" parent="1">
          <mxGeometry x="-230" y="500" width="160" height="180" as="geometry" />
        </mxCell>
        <mxCell id="BADFZe-vywgrfgyrvBf6-32" value="&lt;p style=&quot;margin:0px;margin-top:4px;text-align:center;&quot;&gt;&lt;b&gt;Cart&lt;/b&gt;&lt;/p&gt;&lt;hr size=&quot;1&quot; style=&quot;border-style:solid;&quot;&gt;&lt;p style=&quot;margin:0px;margin-left:4px;&quot;&gt;+ cartId: String&lt;/p&gt;&lt;p style=&quot;margin:0px;margin-left:4px;&quot;&gt;+ userId: String&lt;/p&gt;&lt;p style=&quot;margin:0px;margin-left:4px;&quot;&gt;+ items: Array&amp;lt;Product&amp;gt;&lt;/p&gt;&lt;p style=&quot;margin:0px;margin-left:4px;&quot;&gt;+ totalPrice: Number&lt;/p&gt;&lt;hr size=&quot;1&quot; style=&quot;border-style:solid;&quot;&gt;&lt;p style=&quot;margin:0px;margin-left:4px;&quot;&gt;+ addItem(product: Product): void&lt;br style=&quot;padding: 0px; margin: 0px;&quot;&gt;+ removeItem(product: Product): void&lt;br style=&quot;padding: 0px; margin: 0px;&quot;&gt;+ calculateTotal(): Number&lt;br&gt;&lt;/p&gt;" style="verticalAlign=top;align=left;overflow=fill;html=1;whiteSpace=wrap;" vertex="1" parent="1">
          <mxGeometry x="-510" y="470" width="210" height="150" as="geometry" />
        </mxCell>
        <mxCell id="BADFZe-vywgrfgyrvBf6-33" value="&lt;p style=&quot;margin:0px;margin-top:4px;text-align:center;&quot;&gt;&lt;b&gt;Order&lt;/b&gt;&lt;/p&gt;&lt;hr size=&quot;1&quot; style=&quot;border-style:solid;&quot;&gt;&lt;p style=&quot;margin:0px;margin-left:4px;&quot;&gt;+ orderId: String&lt;br&gt;&lt;/p&gt;&lt;p style=&quot;margin:0px;margin-left:4px;&quot;&gt;+ userId: String&lt;br style=&quot;padding: 0px; margin: 0px;&quot;&gt;+ cartId: String&lt;br style=&quot;padding: 0px; margin: 0px;&quot;&gt;+ status: String&lt;br style=&quot;padding: 0px; margin: 0px;&quot;&gt;+ paymentMethod: String&lt;br&gt;&lt;/p&gt;&lt;hr size=&quot;1&quot; style=&quot;border-style:solid;&quot;&gt;&lt;p style=&quot;margin:0px;margin-left:4px;&quot;&gt;+ placeOrder(): void&lt;br style=&quot;padding: 0px; margin: 0px;&quot;&gt;+ cancelOrder(): void&lt;br style=&quot;padding: 0px; margin: 0px;&quot;&gt;+ updateStatus(status: String): void&lt;br&gt;&lt;/p&gt;" style="verticalAlign=top;align=left;overflow=fill;html=1;whiteSpace=wrap;" vertex="1" parent="1">
          <mxGeometry x="-60" y="380" width="210" height="170" as="geometry" />
        </mxCell>
        <mxCell id="BADFZe-vywgrfgyrvBf6-36" value="&lt;p style=&quot;margin:0px;margin-top:4px;text-align:center;&quot;&gt;&lt;b&gt;Invoice&lt;/b&gt;&lt;/p&gt;&lt;hr size=&quot;1&quot; style=&quot;border-style:solid;&quot;&gt;&lt;p style=&quot;margin:0px;margin-left:4px;&quot;&gt;+ invoiceId: String&lt;br style=&quot;padding: 0px; margin: 0px;&quot;&gt;+ orderId: String&lt;br style=&quot;padding: 0px; margin: 0px;&quot;&gt;+ invoiceDate: Date&lt;br style=&quot;padding: 0px; margin: 0px;&quot;&gt;+ totalAmount: Number&lt;br&gt;&lt;/p&gt;&lt;hr size=&quot;1&quot; style=&quot;border-style:solid;&quot;&gt;&lt;p style=&quot;margin:0px;margin-left:4px;&quot;&gt;+ generateInvoice(): void&lt;br style=&quot;padding: 0px; margin: 0px;&quot;&gt;+ sendInvoice(): void&lt;br&gt;&lt;/p&gt;" style="verticalAlign=top;align=left;overflow=fill;html=1;whiteSpace=wrap;" vertex="1" parent="1">
          <mxGeometry x="220" y="250" width="210" height="150" as="geometry" />
        </mxCell>
        <mxCell id="BADFZe-vywgrfgyrvBf6-41" value="" style="edgeStyle=entityRelationEdgeStyle;fontSize=12;html=1;endArrow=ERmandOne;startArrow=ERmandOne;rounded=0;entryX=0;entryY=0.75;entryDx=0;entryDy=0;exitX=0.997;exitY=0.283;exitDx=0;exitDy=0;exitPerimeter=0;" edge="1" parent="1" source="BADFZe-vywgrfgyrvBf6-32" target="BADFZe-vywgrfgyrvBf6-27">
          <mxGeometry width="100" height="100" relative="1" as="geometry">
            <mxPoint x="-295" y="410" as="sourcePoint" />
            <mxPoint x="-210" y="450" as="targetPoint" />
            <Array as="points">
              <mxPoint x="-265" y="460" />
              <mxPoint x="-270" y="420" />
              <mxPoint x="-170" y="440" />
              <mxPoint x="-190" y="480" />
            </Array>
          </mxGeometry>
        </mxCell>
        <mxCell id="BADFZe-vywgrfgyrvBf6-42" value="" style="edgeStyle=entityRelationEdgeStyle;fontSize=12;html=1;endArrow=ERoneToMany;rounded=0;exitX=1;exitY=0.5;exitDx=0;exitDy=0;entryX=0.005;entryY=0.169;entryDx=0;entryDy=0;entryPerimeter=0;" edge="1" parent="1" source="BADFZe-vywgrfgyrvBf6-27" target="BADFZe-vywgrfgyrvBf6-33">
          <mxGeometry width="100" height="100" relative="1" as="geometry">
            <mxPoint x="-210" y="570" as="sourcePoint" />
            <mxPoint x="-40" y="460" as="targetPoint" />
          </mxGeometry>
        </mxCell>
        <mxCell id="BADFZe-vywgrfgyrvBf6-43" value="" style="edgeStyle=entityRelationEdgeStyle;fontSize=12;html=1;endArrow=ERmany;startArrow=ERmany;rounded=0;exitX=1.005;exitY=0.58;exitDx=0;exitDy=0;exitPerimeter=0;entryX=-0.02;entryY=0.169;entryDx=0;entryDy=0;entryPerimeter=0;" edge="1" parent="1" source="BADFZe-vywgrfgyrvBf6-32" target="BADFZe-vywgrfgyrvBf6-29">
          <mxGeometry width="100" height="100" relative="1" as="geometry">
            <mxPoint x="-300" y="570" as="sourcePoint" />
            <mxPoint x="-200" y="470" as="targetPoint" />
          </mxGeometry>
        </mxCell>
        <mxCell id="BADFZe-vywgrfgyrvBf6-44" value="" style="edgeStyle=entityRelationEdgeStyle;fontSize=12;html=1;endArrow=ERmandOne;startArrow=ERmandOne;rounded=0;exitX=1.014;exitY=0.647;exitDx=0;exitDy=0;exitPerimeter=0;entryX=0;entryY=0.5;entryDx=0;entryDy=0;" edge="1" parent="1" source="BADFZe-vywgrfgyrvBf6-33" target="BADFZe-vywgrfgyrvBf6-36">
          <mxGeometry width="100" height="100" relative="1" as="geometry">
            <mxPoint x="160" y="530" as="sourcePoint" />
            <mxPoint x="20" y="240" as="targetPoint" />
            <Array as="points">
              <mxPoint x="306.94000000000005" y="726.4" />
              <mxPoint x="296.94000000000005" y="732.4" />
            </Array>
          </mxGeometry>
        </mxCell>
      </root>
    </mxGraphModel>
  </diagram>
</mxfile>
